<svg width="64" height="64" viewBox="0 0 64 64" xmlns="http://www.w3.org/2000/svg">
  <defs>
    <clipPath id="ball">
      <circle cx="32" cy="34" r="21"/>
    </clipPath>
  </defs>
  <rect width="64" height="64" rx="16" fill="#1a1a1a"/>
  <rect x="28" y="8" width="8" height="3" rx="1.5" fill="white"/>
  <line x1="32" y1="11" x2="32" y2="15" stroke="white" stroke-width="1.4" stroke-linecap="round"/>
  <g clip-path="url(#ball)">
    <path d="M11 22 Q32 19 53 22" fill="none" stroke="white" stroke-width="1.1"/>
    <path d="M11 27 Q32 24 53 27" fill="none" stroke="white" stroke-width="1.1"/>
    <path d="M11 32 Q32 29 53 32" fill="none" stroke="white" stroke-width="1.1"/>
    <path d="M11 37 Q32 34 53 37" fill="none" stroke="white" stroke-width="1.1"/>
    <path d="M11 43 Q32 40 53 43" fill="none" stroke="white" stroke-width="1.1"/>
    <path d="M11 48 Q32 45 53 48" fill="none" stroke="white" stroke-width="1.1"/>
    <ellipse cx="32" cy="34" rx="4" ry="21" fill="none" stroke="white" stroke-width="1.1"/>
    <ellipse cx="32" cy="34" rx="11" ry="21" fill="none" stroke="white" stroke-width="1.1"/>
    <ellipse cx="32" cy="34" rx="18" ry="21" fill="none" stroke="white" stroke-width="1.1"/>
    <circle cx="32" cy="34" r="21" fill="none" stroke="white" stroke-width="1.3"/>
  </g>
</svg>
